<?xml version="1.0" encoding="UTF-8" standalone="no"?>
<!-- Creator: fig2dev Version 3.2.9 -->

<!-- CreationDate: 2024-02-22 13:10:49 -->

<!-- Magnification: 1.05 -->

<svg
   width="303.97238pt"
   height="352.04056pt"
   viewBox="885 663 4821.5519 5572.981"
   version="1.1"
   id="svg5097"
   sodipodi:docname="fig-prefix-suffix.svg"
   inkscape:version="1.2.2 (b0a8486541, 2022-12-01)"
   xmlns:inkscape="http://www.inkscape.org/namespaces/inkscape"
   xmlns:sodipodi="http://sodipodi.sourceforge.net/DTD/sodipodi-0.dtd"
   xmlns="http://www.w3.org/2000/svg"
   xmlns:svg="http://www.w3.org/2000/svg">
  <defs
     id="defs5101">
    <marker
       style="overflow:visible"
       id="TriangleStart"
       refX="0"
       refY="0"
       orient="auto-start-reverse"
       inkscape:stockid="TriangleStart"
       markerWidth="5.3244081"
       markerHeight="6.155385"
       viewBox="0 0 5.3244081 6.1553851"
       inkscape:isstock="true"
       inkscape:collect="always"
       preserveAspectRatio="xMidYMid">
      <path
         transform="scale(0.5)"
         style="fill:context-stroke;fill-rule:evenodd;stroke:context-stroke;stroke-width:1pt"
         d="M 5.77,0 -2.88,5 V -5 Z"
         id="path135" />
    </marker>
    <defs
       id="defs4909">
      <clipPath
         id="cp0">
        <path
           clip-rule="evenodd"
           d="M 885,663 H 7198 V 6267 H 885 Z m 955,725 124,10 -114,49 138,-46 -2,-14 z"
           id="path4906" />
      </clipPath>
    </defs>
    <defs
       id="defs4918">
      <clipPath
         id="cp1">
        <path
           clip-rule="evenodd"
           d="M 885,663 H 7198 V 6267 H 885 Z m 1048,1830 120,27 -119,33 143,-26 v -14 z"
           id="path4915" />
      </clipPath>
    </defs>
    <defs
       id="defs4927">
      <clipPath
         id="cp2">
        <path
           clip-rule="evenodd"
           d="M 885,663 H 7198 V 6267 H 885 Z m 965,2751 114,48 -124,11 h 146 l 2,-14 z"
           id="path4924" />
      </clipPath>
    </defs>
    <defs
       id="defs4962">
      <clipPath
         id="cp3">
        <path
           clip-rule="evenodd"
           d="M 885,663 H 7198 V 6267 H 885 Z m 2235,2174 30,-120 30,120 -23,-144 h -14 z"
           id="path4959" />
      </clipPath>
    </defs>
    <defs
       id="defs4971">
      <clipPath
         id="cp4">
        <path
           clip-rule="evenodd"
           d="M 885,663 H 7198 V 6267 H 885 Z m 2235,1049 30,-120 30,120 -23,-144 h -14 z"
           id="path4968" />
      </clipPath>
    </defs>
    <defs
       id="defs4980">
      <clipPath
         id="cp5">
        <path
           clip-rule="evenodd"
           d="M 885,663 H 7198 V 6267 H 885 Z m 2295,4375 -30,120 -30,-120 23,144 h 14 z"
           id="path4977" />
      </clipPath>
    </defs>
    <defs
       id="defs4989">
      <clipPath
         id="cp6">
        <path
           clip-rule="evenodd"
           d="M 885,663 H 7198 V 6267 H 885 Z m 1903,3357 120,30 -120,30 144,-23 v -14 z"
           id="path4986" />
      </clipPath>
    </defs>
    <defs
       id="defs4998">
      <clipPath
         id="cp7">
        <path
           clip-rule="evenodd"
           d="M 885,663 H 7198 V 6267 H 885 Z m 1903,3132 120,30 -120,30 144,-23 v -14 z"
           id="path4995" />
      </clipPath>
    </defs>
    <defs
       id="defs5007">
      <clipPath
         id="cp8">
        <path
           clip-rule="evenodd"
           d="M 885,663 H 7198 V 6267 H 885 Z m 1772,717 -120,-30 120,-30 -144,23 v 14 z"
           id="path5004" />
      </clipPath>
    </defs>
    <defs
       id="defs5016">
      <clipPath
         id="cp9">
        <path
           clip-rule="evenodd"
           d="M 885,663 H 7198 V 6267 H 885 Z m 1772,1842 -120,-30 120,-30 -144,23 v 14 z"
           id="path5013" />
      </clipPath>
    </defs>
    <defs
       id="defs5025">
      <clipPath
         id="cp10">
        <path
           clip-rule="evenodd"
           d="M 885,663 H 7198 V 6267 H 885 Z m 1772,3642 -120,-30 120,-30 -144,23 v 14 z"
           id="path5022" />
      </clipPath>
    </defs>
    <defs
       id="defs5034">
      <clipPath
         id="cp11">
        <path
           clip-rule="evenodd"
           d="M 885,663 H 7198 V 6267 H 885 Z m 1772,4767 -120,-30 120,-30 -144,23 v 14 z"
           id="path5031" />
      </clipPath>
    </defs>
    <defs
       id="defs5043">
      <clipPath
         id="cp12">
        <path
           clip-rule="evenodd"
           d="M 885,663 H 7198 V 6267 H 885 Z m 1772,2967 -120,-30 120,-30 -144,23 v 14 z"
           id="path5040" />
      </clipPath>
    </defs>
    <defs
       id="defs5062">
      <clipPath
         id="cp13">
        <path
           clip-rule="evenodd"
           d="M 885,663 H 7198 V 6267 H 885 Z m 1090,3834 124,6 -112,53 136,-51 -3,-13 z"
           id="path5059" />
      </clipPath>
    </defs>
    <defs
       id="defs5071">
      <clipPath
         id="cp14">
        <path
           clip-rule="evenodd"
           d="M 885,663 H 7198 V 6267 H 885 Z m 1033,4512 92,82 -120,-29 138,46 6,-12 z"
           id="path5068" />
      </clipPath>
    </defs>
  </defs>
  <sodipodi:namedview
     id="namedview5099"
     pagecolor="#ffffff"
     bordercolor="#666666"
     borderopacity="1.0"
     inkscape:showpageshadow="2"
     inkscape:pageopacity="0.0"
     inkscape:pagecheckerboard="0"
     inkscape:deskcolor="#d1d1d1"
     inkscape:document-units="pt"
     showgrid="false"
     inkscape:zoom="1.3618272"
     inkscape:cx="266.9208"
     inkscape:cy="226.16673"
     inkscape:window-width="1920"
     inkscape:window-height="1149"
     inkscape:window-x="1920"
     inkscape:window-y="27"
     inkscape:window-maximized="1"
     inkscape:current-layer="svg5097" />
  <polyline
     points=" 3825,675 3825,6255"
     stroke="#000000"
     stroke-width="8px"
     stroke-dasharray="40, 40"
     id="polyline4933"
     style="fill:none"
     transform="translate(-17.016,-13.540093)" />
  <rect
     x="2907.9839"
     y="661.4599"
     width="450"
     height="900"
     stroke="#000000"
     stroke-width="8px"
     id="rect4935"
     style="fill:none" />
  <rect
     x="2907.9839"
     y="1786.46"
     width="450"
     height="900"
     stroke="#000000"
     stroke-width="8px"
     id="rect4937"
     style="fill:none" />
  <rect
     x="2907.9839"
     y="2911.46"
     width="450"
     height="900"
     stroke="#000000"
     stroke-width="8px"
     id="rect4939"
     style="fill:none" />
  <rect
     x="2907.9839"
     y="4036.46"
     width="450"
     height="900"
     stroke="#000000"
     stroke-width="8px"
     id="rect4941"
     style="fill:none" />
  <rect
     x="2907.9839"
     y="5161.46"
     width="450"
     height="900"
     stroke="#000000"
     stroke-width="8px"
     id="rect4943"
     style="fill:none" />
  <polyline
     points=" 2925,1125 3375,1125"
     stroke="#000000"
     stroke-width="8px"
     id="polyline4945"
     style="fill:none"
     transform="translate(-17.016,-13.540093)" />
  <polyline
     points=" 2925,3375 3375,3375"
     stroke="#000000"
     stroke-width="8px"
     id="polyline4947"
     style="fill:none"
     transform="translate(-17.016,-13.540093)" />
  <polyline
     points=" 2925,4500 3375,4500"
     stroke="#000000"
     stroke-width="8px"
     id="polyline4949"
     style="fill:none"
     transform="translate(-17.016,-13.540093)" />
  <polyline
     points=" 2925,5625 3375,5625"
     stroke="#000000"
     stroke-width="8px"
     id="polyline4951"
     style="fill:none"
     transform="translate(-17.016,-13.540093)" />
  <polyline
     points=" 3375,675 2925,1125"
     stroke="#000000"
     stroke-width="8px"
     id="polyline4953"
     style="fill:none"
     transform="translate(-17.016,-13.540093)" />
  <polyline
     points=" 2925,6075 3375,5625"
     stroke="#000000"
     stroke-width="8px"
     id="polyline4955"
     style="fill:none"
     transform="translate(-17.016,-13.540093)" />
  <polyline
     points=" 2925,2250 3375,2250"
     stroke="#000000"
     stroke-width="8px"
     id="polyline4957"
     style="fill:none"
     transform="translate(-17.016,-13.540093)" />
  <polyline
     points=" 3150,3150 3150,2700"
     clip-path="url(#cp3)"
     stroke="#000000"
     stroke-width="8px"
     id="polyline4964"
     style="fill:none"
     transform="translate(-17.016,-13.540093)" />
  <polyline
     points=" 3120,2837 3150,2717 3180,2837"
     stroke="#000000"
     stroke-width="8px"
     stroke-miterlimit="8"
     id="polyline4966"
     style="fill:none"
     transform="translate(-17.016,-13.540093)" />
  <polyline
     points=" 3150,2025 3150,1575"
     clip-path="url(#cp4)"
     stroke="#000000"
     stroke-width="8px"
     id="polyline4973"
     style="fill:none"
     transform="translate(-17.016,-13.540093)" />
  <polyline
     points=" 3120,1712 3150,1592 3180,1712"
     stroke="#000000"
     stroke-width="8px"
     stroke-miterlimit="8"
     id="polyline4975"
     style="fill:none"
     transform="translate(-17.016,-13.540093)" />
  <polyline
     points=" 3150,4725 3150,5175"
     clip-path="url(#cp5)"
     stroke="#000000"
     stroke-width="8px"
     id="polyline4982"
     style="fill:none"
     transform="translate(-17.016,-13.540093)" />
  <polyline
     points=" 3180,5038 3150,5158 3120,5038"
     stroke="#000000"
     stroke-width="8px"
     stroke-miterlimit="8"
     id="polyline4984"
     style="fill:none"
     transform="translate(-17.016,-13.540093)" />
  <polyline
     points=" 1800,4050 2925,4050"
     clip-path="url(#cp6)"
     stroke="#000000"
     stroke-width="8px"
     id="polyline4991"
     style="fill:none"
     transform="translate(-17.016,-13.540093)" />
  <polyline
     points=" 2788,4020 2908,4050 2788,4080"
     stroke="#000000"
     stroke-width="8px"
     stroke-miterlimit="8"
     id="polyline4993"
     style="fill:none"
     transform="translate(-17.016,-13.540093)" />
  <polyline
     points=" 1800,3825 2925,3825"
     clip-path="url(#cp7)"
     stroke="#000000"
     stroke-width="8px"
     id="polyline5000"
     style="fill:none"
     transform="translate(-17.016,-13.540093)" />
  <polyline
     points=" 2788,3795 2908,3825 2788,3855"
     stroke="#000000"
     stroke-width="8px"
     stroke-miterlimit="8"
     id="polyline5002"
     style="fill:none"
     transform="translate(-17.016,-13.540093)" />
  <polyline
     points=" 3150,1350 2520,1350"
     clip-path="url(#cp8)"
     stroke="#000000"
     stroke-width="8px"
     id="polyline5009"
     style="fill:none"
     transform="translate(-17.016,-13.540093)" />
  <polyline
     points=" 2657,1380 2537,1350 2657,1320"
     stroke="#000000"
     stroke-width="8px"
     stroke-miterlimit="8"
     id="polyline5011"
     style="fill:none"
     transform="translate(-17.016,-13.540093)" />
  <polyline
     points=" 3150,2475 2520,2475"
     clip-path="url(#cp9)"
     stroke="#000000"
     stroke-width="8px"
     id="polyline5018"
     style="fill:none"
     transform="translate(-17.016,-13.540093)" />
  <polyline
     points=" 2657,2505 2537,2475 2657,2445"
     stroke="#000000"
     stroke-width="8px"
     stroke-miterlimit="8"
     id="polyline5020"
     style="fill:none"
     transform="translate(-17.016,-13.540093)" />
  <polyline
     points=" 3150,4275 2520,4275"
     clip-path="url(#cp10)"
     stroke="#000000"
     stroke-width="8px"
     id="polyline5027"
     style="fill:none"
     transform="translate(-17.016,-13.540093)" />
  <polyline
     points=" 2657,4305 2537,4275 2657,4245"
     stroke="#000000"
     stroke-width="8px"
     stroke-miterlimit="8"
     id="polyline5029"
     style="fill:none"
     transform="translate(-17.016,-13.540093)" />
  <polyline
     points=" 3150,5400 2520,5400"
     clip-path="url(#cp11)"
     stroke="#000000"
     stroke-width="8px"
     id="polyline5036"
     style="fill:none"
     transform="translate(-17.016,-13.540093)" />
  <polyline
     points=" 2657,5430 2537,5400 2657,5370"
     stroke="#000000"
     stroke-width="8px"
     stroke-miterlimit="8"
     id="polyline5038"
     style="fill:none"
     transform="translate(-17.016,-13.540093)" />
  <polyline
     points=" 3150,3600 2520,3600"
     clip-path="url(#cp12)"
     stroke="#000000"
     stroke-width="8px"
     id="polyline5045"
     style="fill:none"
     transform="translate(-17.016,-13.540093)" />
  <polyline
     points=" 2657,3630 2537,3600 2657,3570"
     stroke="#000000"
     stroke-width="8px"
     stroke-miterlimit="8"
     id="polyline5047"
     style="fill:none"
     transform="translate(-17.016,-13.540093)" />
  <polygon
     points="2139,1143 2129,1150 2120,1158 2111,1166 2103,1175 2096,1185 2090,1195 2085,1205 2081,1215 2079,1224 2077,1234 2077,1243 2078,1253 2080,1264 2085,1276 2091,1289 2099,1301 2107,1313 2117,1325 2127,1337 2137,1349 2146,1359 2155,1369 2162,1379 2168,1388 2173,1398 2177,1408 2180,1418 2182,1428 2185,1438 2188,1447 2191,1456 2197,1464 2203,1471 2213,1478 2221,1482 2230,1486 2241,1490 2254,1493 2268,1497 2284,1499 2300,1501 2317,1503 2334,1503 2352,1503 2368,1502 2384,1499 2400,1496 2415,1493 2430,1488 2444,1482 2458,1475 2471,1467 2484,1458 2497,1448 2508,1438 2517,1428 2525,1417 2531,1407 2535,1398 2537,1389 2537,1380 2535,1373 2529,1363 2519,1354 2507,1345 2493,1337 2478,1329 2464,1321 2452,1313 2443,1306 2438,1298 2438,1290 2441,1283 2448,1275 2457,1267 2470,1257 2484,1248 2499,1239 2514,1229 2528,1220 2541,1212 2552,1205 2560,1198 2565,1193 2567,1188 2565,1184 2561,1180 2553,1177 2542,1174 2529,1171 2514,1169 2497,1166 2479,1164 2460,1161 2441,1158 2423,1155 2406,1152 2389,1148 2372,1145 2354,1141 2335,1137 2316,1133 2297,1129 2278,1126 2260,1124 2243,1122 2226,1121 2211,1121 2196,1123 2183,1125 2171,1128 2160,1132 2149,1137 "
     stroke="#000000"
     stroke-width="8px"
     stroke-linejoin="bevel"
     id="polygon5049"
     style="fill:#8ae234;fill-opacity:0.5"
     transform="translate(-17.016,-13.540093)" />
  <polygon
     points="2139,2268 2129,2275 2120,2283 2111,2291 2103,2300 2096,2310 2090,2320 2085,2330 2081,2340 2079,2349 2077,2359 2077,2368 2078,2378 2080,2389 2085,2401 2091,2414 2099,2426 2107,2438 2117,2450 2127,2462 2137,2474 2146,2484 2155,2494 2162,2504 2168,2513 2173,2523 2177,2533 2180,2543 2182,2553 2185,2563 2188,2572 2191,2581 2197,2589 2203,2596 2213,2603 2221,2607 2230,2611 2241,2615 2254,2618 2268,2622 2284,2624 2300,2626 2317,2628 2334,2628 2352,2628 2368,2627 2384,2624 2400,2621 2415,2618 2430,2613 2444,2607 2458,2600 2471,2592 2484,2583 2497,2573 2508,2563 2517,2553 2525,2542 2531,2532 2535,2523 2537,2514 2537,2505 2535,2498 2529,2488 2519,2479 2507,2470 2493,2462 2478,2454 2464,2446 2452,2438 2443,2431 2438,2423 2438,2415 2441,2408 2448,2400 2457,2392 2470,2382 2484,2373 2499,2364 2514,2354 2528,2345 2541,2337 2552,2330 2560,2323 2565,2318 2567,2313 2565,2309 2561,2305 2553,2302 2542,2299 2529,2296 2514,2294 2497,2291 2479,2289 2460,2286 2441,2283 2423,2280 2406,2277 2389,2273 2372,2270 2354,2266 2335,2262 2316,2258 2297,2254 2278,2251 2260,2249 2243,2247 2226,2246 2211,2246 2196,2248 2183,2250 2171,2253 2160,2257 2149,2262 "
     stroke="#000000"
     stroke-width="8px"
     stroke-linejoin="bevel"
     id="polygon5051"
     style="fill:#8ae234;fill-opacity:0.5"
     transform="translate(-17.016,-13.540093)" />
  <polygon
     points="2139,3393 2129,3400 2120,3408 2111,3416 2103,3425 2096,3435 2090,3445 2085,3455 2081,3465 2079,3474 2077,3484 2077,3493 2078,3503 2080,3514 2085,3526 2091,3539 2099,3551 2107,3563 2117,3575 2127,3587 2137,3599 2146,3609 2155,3619 2162,3629 2168,3638 2173,3648 2177,3658 2180,3668 2182,3678 2185,3688 2188,3697 2191,3706 2197,3714 2203,3721 2213,3728 2221,3732 2230,3736 2241,3740 2254,3743 2268,3747 2284,3749 2300,3751 2317,3753 2334,3753 2352,3753 2368,3752 2384,3749 2400,3746 2415,3743 2430,3738 2444,3732 2458,3725 2471,3717 2484,3708 2497,3698 2508,3688 2517,3678 2525,3667 2531,3657 2535,3648 2537,3639 2537,3630 2535,3623 2529,3613 2519,3604 2507,3595 2493,3587 2478,3579 2464,3571 2452,3563 2443,3556 2438,3548 2438,3540 2441,3533 2448,3525 2457,3517 2470,3507 2484,3498 2499,3489 2514,3479 2528,3470 2541,3462 2552,3455 2560,3448 2565,3443 2567,3438 2565,3434 2561,3430 2553,3427 2542,3424 2529,3421 2514,3419 2497,3416 2479,3414 2460,3411 2441,3408 2423,3405 2406,3402 2389,3398 2372,3395 2354,3391 2335,3387 2316,3383 2297,3379 2278,3376 2260,3374 2243,3372 2226,3371 2211,3371 2196,3373 2183,3375 2171,3378 2160,3382 2149,3387 "
     stroke="#000000"
     stroke-width="8px"
     stroke-linejoin="bevel"
     id="polygon5053"
     style="fill:#8ae234;fill-opacity:0.5"
     transform="translate(-17.016,-13.540093)" />
  <polygon
     points="2139,4203 2129,4210 2120,4218 2111,4226 2103,4235 2096,4245 2090,4255 2085,4265 2081,4275 2079,4284 2077,4294 2077,4303 2078,4313 2080,4324 2085,4336 2091,4349 2099,4361 2107,4373 2117,4385 2127,4397 2137,4409 2146,4419 2155,4429 2162,4439 2168,4448 2173,4458 2177,4468 2180,4478 2182,4488 2185,4498 2188,4507 2191,4516 2197,4524 2203,4531 2213,4538 2221,4542 2230,4546 2241,4550 2254,4553 2268,4557 2284,4559 2300,4561 2317,4563 2334,4563 2352,4563 2368,4562 2384,4559 2400,4556 2415,4553 2430,4548 2444,4542 2458,4535 2471,4527 2484,4518 2497,4508 2508,4498 2517,4488 2525,4477 2531,4467 2535,4458 2537,4449 2537,4440 2535,4433 2529,4423 2519,4414 2507,4405 2493,4397 2478,4389 2464,4381 2452,4373 2443,4366 2438,4358 2438,4350 2441,4343 2448,4335 2457,4327 2470,4317 2484,4308 2499,4299 2514,4289 2528,4280 2541,4272 2552,4265 2560,4258 2565,4253 2567,4248 2565,4244 2561,4240 2553,4237 2542,4234 2529,4231 2514,4229 2497,4226 2479,4224 2460,4221 2441,4218 2423,4215 2406,4212 2389,4208 2372,4205 2354,4201 2335,4197 2316,4193 2297,4189 2278,4186 2260,4184 2243,4182 2226,4181 2211,4181 2196,4183 2183,4185 2171,4188 2160,4192 2149,4197 "
     stroke="#000000"
     stroke-width="8px"
     stroke-linejoin="bevel"
     id="polygon5055"
     style="fill:#8ae234;fill-opacity:0.5"
     transform="translate(-17.016,-13.540093)" />
  <polygon
     points="2139,5328 2129,5335 2120,5343 2111,5351 2103,5360 2096,5370 2090,5380 2085,5390 2081,5400 2079,5409 2077,5419 2077,5428 2078,5438 2080,5449 2085,5461 2091,5474 2099,5486 2107,5498 2117,5510 2127,5522 2137,5534 2146,5544 2155,5554 2162,5564 2168,5573 2173,5583 2177,5593 2180,5603 2182,5613 2185,5623 2188,5632 2191,5641 2197,5649 2203,5656 2213,5663 2221,5667 2230,5671 2241,5675 2254,5678 2268,5682 2284,5684 2300,5686 2317,5688 2334,5688 2352,5688 2368,5687 2384,5684 2400,5681 2415,5678 2430,5673 2444,5667 2458,5660 2471,5652 2484,5643 2497,5633 2508,5623 2517,5613 2525,5602 2531,5592 2535,5583 2537,5574 2537,5565 2535,5558 2529,5548 2519,5539 2507,5530 2493,5522 2478,5514 2464,5506 2452,5498 2443,5491 2438,5483 2438,5475 2441,5468 2448,5460 2457,5452 2470,5442 2484,5433 2499,5424 2514,5414 2528,5405 2541,5397 2552,5390 2560,5383 2565,5378 2567,5373 2565,5369 2561,5365 2553,5362 2542,5359 2529,5356 2514,5354 2497,5351 2479,5349 2460,5346 2441,5343 2423,5340 2406,5337 2389,5333 2372,5330 2354,5326 2335,5322 2316,5318 2297,5314 2278,5311 2260,5309 2243,5307 2226,5306 2211,5306 2196,5308 2183,5310 2171,5313 2160,5317 2149,5322 "
     stroke="#000000"
     stroke-width="8px"
     stroke-linejoin="bevel"
     id="polygon5057"
     style="fill:#8ae234;fill-opacity:0.5;stroke-width:7.99435181;stroke-dasharray:31.97740746,63.95481492;stroke-dashoffset:0"
     transform="translate(-17.016,-13.540093)" />
  <text
     xml:space="preserve"
     x="4212.9839"
     y="1156.46"
     fill="#000000"
     font-family="AvantGarde"
     font-style="italic"
     font-weight="normal"
     font-size="144px"
     text-anchor="start"
     id="text5077"
     style="font-style:normal;font-variant:normal;font-weight:normal;font-stretch:normal;font-size:144px;font-family:Cantarell;-inkscape-font-specification:'Cantarell, Normal';font-variant-ligatures:normal;font-variant-caps:normal;font-variant-numeric:normal;font-variant-east-asian:normal">(top-level expression 1)</text>
  <text
     xml:space="preserve"
     x="4212.9839"
     y="5656.46"
     fill="#000000"
     font-family="AvantGarde"
     font-style="italic"
     font-weight="normal"
     font-size="144px"
     text-anchor="start"
     id="text5079"
     style="font-style:normal;font-variant:normal;font-weight:normal;font-stretch:normal;font-size:144px;font-family:Cantarell;-inkscape-font-specification:'Cantarell, Normal';font-variant-ligatures:normal;font-variant-caps:normal;font-variant-numeric:normal;font-variant-east-asian:normal">(top-level expression 5)</text>
  <text
     xml:space="preserve"
     x="4212.9839"
     y="4531.46"
     fill="#000000"
     font-family="AvantGarde"
     font-style="italic"
     font-weight="normal"
     font-size="144px"
     text-anchor="start"
     id="text5081"
     style="font-style:normal;font-variant:normal;font-weight:normal;font-stretch:normal;font-size:144px;font-family:Cantarell;-inkscape-font-specification:'Cantarell, Normal';font-variant-ligatures:normal;font-variant-caps:normal;font-variant-numeric:normal;font-variant-east-asian:normal">(top-level expression 4)</text>
  <text
     xml:space="preserve"
     x="4212.9839"
     y="3406.46"
     fill="#000000"
     font-family="AvantGarde"
     font-style="italic"
     font-weight="normal"
     font-size="144px"
     text-anchor="start"
     id="text5083"
     style="font-style:normal;font-variant:normal;font-weight:normal;font-stretch:normal;font-size:144px;font-family:Cantarell;-inkscape-font-specification:'Cantarell, Normal';font-variant-ligatures:normal;font-variant-caps:normal;font-variant-numeric:normal;font-variant-east-asian:normal">(top-level expression 3)</text>
  <text
     xml:space="preserve"
     x="4212.9839"
     y="2281.46"
     fill="#000000"
     font-family="AvantGarde"
     font-style="italic"
     font-weight="normal"
     font-size="144px"
     text-anchor="start"
     id="text5085"
     style="font-style:normal;font-variant:normal;font-weight:normal;font-stretch:normal;font-size:144px;font-family:Cantarell;-inkscape-font-specification:'Cantarell, Normal';font-variant-ligatures:normal;font-variant-caps:normal;font-variant-numeric:normal;font-variant-east-asian:normal">(top-level expression 2)</text>
  <text
     xml:space="preserve"
     x="1647.984"
     y="3811.46"
     fill="#000000"
     font-family="Times"
     font-style="italic"
     font-weight="normal"
     font-size="144px"
     text-anchor="end"
     id="text5087"
     style="font-style:normal;font-variant:normal;font-weight:normal;font-stretch:normal;font-size:144px;font-family:Cantarell;-inkscape-font-specification:'Cantarell, Normal';font-variant-ligatures:normal;font-variant-caps:normal;font-variant-numeric:normal;font-variant-east-asian:normal">prefix</text>
  <text
     xml:space="preserve"
     x="1647.984"
     y="4126.46"
     fill="#000000"
     font-family="Times"
     font-style="italic"
     font-weight="normal"
     font-size="144px"
     text-anchor="end"
     id="text5089"
     style="font-style:normal;font-variant:normal;font-weight:normal;font-stretch:normal;font-size:144px;font-family:Cantarell;-inkscape-font-specification:'Cantarell, Normal';font-variant-ligatures:normal;font-variant-caps:normal;font-variant-numeric:normal;font-variant-east-asian:normal">suffix</text>
  <text
     xml:space="preserve"
     x="942.42249"
     y="2153.186"
     fill="#000000"
     font-family="Times"
     font-style="italic"
     font-weight="normal"
     font-size="144px"
     text-anchor="start"
     id="text5091"
     style="font-style:normal;font-variant:normal;font-weight:normal;font-stretch:normal;font-size:144px;font-family:Cantarell;-inkscape-font-specification:'Cantarell, Normal';font-variant-ligatures:normal;font-variant-caps:normal;font-variant-numeric:normal;font-variant-east-asian:normal"><tspan
       sodipodi:role="line"
       id="tspan5806"
       x="942.42249"
       y="2153.186">absolute</tspan><tspan
       sodipodi:role="line"
       x="942.42249"
       y="2333.186"
       id="tspan5810">top-level</tspan><tspan
       sodipodi:role="line"
       id="tspan5808"
       x="942.42249"
       y="2513.186">wads</tspan></text>
  <path
     style="fill:none;fill-rule:evenodd;stroke:#000000;stroke-width:11.89635685;stroke-linecap:butt;stroke-linejoin:miter;stroke-opacity:1;stroke-dasharray:none;marker-end:url(#TriangleStart)"
     d="m 1304.3177,2596.4733 c 139.3194,426.0773 312.8849,778.2613 621.0028,840.119"
     id="path5812"
     sodipodi:nodetypes="cc" />
  <path
     style="fill:none;fill-rule:evenodd;stroke:#000000;stroke-width:11.8964;stroke-linecap:butt;stroke-linejoin:miter;stroke-dasharray:none;stroke-opacity:1;marker-end:url(#TriangleStart)"
     d="m 1190.1101,2006.8815 c 54.6389,-225.9313 400.5399,-548.6167 813.2817,-682.6557"
     id="path5878"
     sodipodi:nodetypes="cc" />
  <path
     style="fill:none;fill-rule:evenodd;stroke:#000000;stroke-width:11.8964;stroke-linecap:butt;stroke-linejoin:miter;stroke-dasharray:none;stroke-opacity:1;marker-end:url(#TriangleStart)"
     d="m 1552.1589,2187.9561 c 38.4676,106.9419 202.6781,191.4724 445.395,208.5514"
     id="path5892"
     sodipodi:nodetypes="cc" />
  <path
     style="fill:none;fill-rule:evenodd;stroke:#000000;stroke-width:11.8964;stroke-linecap:butt;stroke-linejoin:miter;stroke-dasharray:none;stroke-opacity:1;marker-end:url(#TriangleStart)"
     d="m 977.09523,2633.2574 c 79.79257,700.5275 -258.669,1772.3848 1046.27437,1782.1169"
     id="path5904"
     sodipodi:nodetypes="cc" />
  <text
     xml:space="preserve"
     x="942.42249"
     y="4849.5742"
     fill="#000000"
     font-family="Times"
     font-style="italic"
     font-weight="normal"
     font-size="144px"
     text-anchor="start"
     id="text6668"
     style="font-style:normal;font-variant:normal;font-weight:normal;font-stretch:normal;font-size:144px;font-family:Cantarell;-inkscape-font-specification:'Cantarell, Normal';font-variant-ligatures:normal;font-variant-caps:normal;font-variant-numeric:normal;font-variant-east-asian:normal"><tspan
       sodipodi:role="line"
       id="tspan6662"
       x="942.42249"
       y="4849.5742">relative</tspan><tspan
       sodipodi:role="line"
       x="942.42249"
       y="5029.5742"
       id="tspan6664">top-level</tspan><tspan
       sodipodi:role="line"
       id="tspan6666"
       x="942.42249"
       y="5209.5742">wads</tspan></text>
  <path
     style="fill:none;fill-rule:evenodd;stroke:#000000;stroke-width:11.89635685;stroke-linecap:butt;stroke-linejoin:miter;stroke-opacity:1;stroke-dasharray:none;marker-end:url(#TriangleStart)"
     d="m 1304.3177,2596.4733 c 139.3194,426.0773 312.8849,778.2613 621.0028,840.119"
     id="path6680"
     sodipodi:nodetypes="cc" />
  <path
     style="fill:none;fill-rule:evenodd;stroke:#000000;stroke-width:11.8964;stroke-linecap:butt;stroke-linejoin:miter;stroke-dasharray:none;stroke-opacity:1;marker-end:url(#TriangleStart)"
     d="m 1370.7963,5077.3032 c 122.4954,265.8941 261.6038,303.7347 569.7217,365.5924"
     id="path6692"
     sodipodi:nodetypes="cc" />
</svg>
